<?xml version="1.0" encoding="UTF-8" standalone="no"?>
<svg width="23px" height="23px" viewBox="0 0 23 23" version="1.1" xmlns="http://www.w3.org/2000/svg" xmlns:xlink="http://www.w3.org/1999/xlink">
    <!-- Generator: Sketch 3.6.1 (26313) - http://www.bohemiancoding.com/sketch -->
    <title>Shape</title>
    <desc>Created with Sketch.</desc>
    <defs></defs>
    <g id="Page-1" stroke="none" stroke-width="1" fill="none" fill-rule="evenodd">
        <g id="Menu-Tablet" transform="translate(-724.000000, -37.000000)" fill="#4E4E4E">
            <g id="Header" transform="translate(15.000000, 30.000000)">
                <path d="M722.532915,18.4999141 L731.578817,9.45365282 C732.140165,8.89230449 732.140165,7.98200019 731.578817,7.42101124 C731.017469,6.85966292 730.107524,6.85966292 729.546175,7.42101124 L720.499914,16.4669131 L711.454012,7.42101124 C710.892664,6.85966292 709.98236,6.85966292 709.421011,7.42101124 C708.859663,7.98235957 708.859663,8.89266387 709.421011,9.45365282 L718.467272,18.4999141 L709.421011,27.5461753 C708.859663,28.1075236 708.859663,29.0178279 709.421011,29.5788169 C709.701685,29.859491 710.069688,30.0000078 710.437332,30.0000078 C710.804976,30.0000078 711.173338,29.859491 711.454012,29.5788169 L720.499914,20.532915 L729.546175,29.5788169 C729.826849,29.859491 730.194852,30.0000078 730.562496,30.0000078 C730.93014,30.0000078 731.298502,29.859491 731.578817,29.5788169 C732.140165,29.0174686 732.140165,28.1071643 731.578817,27.5461753 L722.532915,18.4999141 L722.532915,18.4999141 Z" id="Shape"></path>
            </g>
        </g>
    </g>
</svg>