<?xml version="1.0" encoding="UTF-8" standalone="no"?>
<svg width="23px" height="23px" viewBox="0 0 23 23" version="1.1" xmlns="http://www.w3.org/2000/svg" xmlns:xlink="http://www.w3.org/1999/xlink">
    <!-- Generator: Sketch 3.6.1 (26313) - http://www.bohemiancoding.com/sketch -->
    <title>Shape</title>
    <desc>Created with Sketch.</desc>
    <defs></defs>
    <g id="Page-1" stroke="none" stroke-width="1" fill="none" fill-rule="evenodd">
        <g id="Menu-Sub-Nav-Tablet" transform="translate(-724.000000, -37.000000)" fill="#FFFFFF">
            <path d="M737.532915,48.4999141 L746.578817,39.4536528 C747.140165,38.8923045 747.140165,37.9820002 746.578817,37.4210112 C746.017469,36.8596629 745.107524,36.8596629 744.546175,37.4210112 L735.499914,46.4669131 L726.454012,37.4210112 C725.892664,36.8596629 724.98236,36.8596629 724.421011,37.4210112 C723.859663,37.9823596 723.859663,38.8926639 724.421011,39.4536528 L733.467272,48.4999141 L724.421011,57.5461753 C723.859663,58.1075236 723.859663,59.0178279 724.421011,59.5788169 C724.701685,59.859491 725.069688,60.0000078 725.437332,60.0000078 C725.804976,60.0000078 726.173338,59.859491 726.454012,59.5788169 L735.499914,50.532915 L744.546175,59.5788169 C744.826849,59.859491 745.194852,60.0000078 745.562496,60.0000078 C745.93014,60.0000078 746.298502,59.859491 746.578817,59.5788169 C747.140165,59.0174686 747.140165,58.1071643 746.578817,57.5461753 L737.532915,48.4999141 L737.532915,48.4999141 Z" id="Shape"></path>
        </g>
    </g>
</svg>