<?xml version="1.0" encoding="UTF-8" standalone="no"?>
<svg width="19px" height="19px" viewBox="0 0 19 19" version="1.1" xmlns="http://www.w3.org/2000/svg" xmlns:xlink="http://www.w3.org/1999/xlink" xmlns:sketch="http://www.bohemiancoding.com/sketch/ns">
    <!-- Generator: Sketch 3.5.1 (25234) - http://www.bohemiancoding.com/sketch -->
    <title>Facebook</title>
    <desc>Created with Sketch.</desc>
    <defs></defs>
    <g id="Page-1" stroke="none" stroke-width="1" fill="none" fill-rule="evenodd" sketch:type="MSPage">
        <g id="Landing-Desktop" sketch:type="MSArtboardGroup" transform="translate(-776.000000, -5425.000000)" fill="#FFFFFF">
            <g id="Footer" sketch:type="MSLayerGroup" transform="translate(0.000000, 5094.000000)">
                <g id="Social-Media" transform="translate(0.000000, 302.000000)" sketch:type="MSShapeGroup">
                    <g id="Group" transform="translate(776.000000, 29.000000)">
                        <path d="M10.1485156,19 L1.04865414,19 C0.46932876,19 0,18.53038 0,17.9512803 L0,1.04864601 C0,0.469398841 0.469402484,0 1.04865414,0 L17.9514196,0 C18.5305238,0 19,0.469398841 19,1.04864601 L19,17.9512803 C19,18.5304537 18.5304501,19 17.9514196,19 L13.109725,19 L13.109725,11.6421529 L15.5794146,11.6421529 L15.9492156,8.77466931 L13.109725,8.77466931 L13.109725,6.94396222 C13.109725,6.11375956 13.3402608,5.54800383 14.5307605,5.54800383 L16.0491857,5.54734032 L16.0491857,2.98264001 C15.7865799,2.94769497 14.8852268,2.86962156 13.8365727,2.86962156 C11.6473302,2.86962156 10.1485156,4.20593747 10.1485156,6.6599785 L10.1485156,8.77466931 L7.67248571,8.77466931 L7.67248571,11.6421529 L10.1485156,11.6421529 L10.1485156,19 L10.1485156,19 Z" id="Facebook"></path>
                    </g>
                </g>
            </g>
        </g>
    </g>
</svg>