<?xml version="1.0" encoding="UTF-8" standalone="no"?>
<svg width="19px" height="19px" viewBox="0 0 19 19" version="1.1" xmlns="http://www.w3.org/2000/svg" xmlns:xlink="http://www.w3.org/1999/xlink" xmlns:sketch="http://www.bohemiancoding.com/sketch/ns">
    <!-- Generator: Sketch 3.5.1 (25234) - http://www.bohemiancoding.com/sketch -->
    <title>Instagram</title>
    <desc>Created with Sketch.</desc>
    <defs></defs>
    <g id="Page-1" stroke="none" stroke-width="1" fill="none" fill-rule="evenodd" sketch:type="MSPage">
        <g id="Landing-Desktop" sketch:type="MSArtboardGroup" transform="translate(-945.000000, -5425.000000)" fill="#FFFFFF">
            <g id="Footer" sketch:type="MSLayerGroup" transform="translate(0.000000, 5094.000000)">
                <g id="Social-Media" transform="translate(0.000000, 302.000000)" sketch:type="MSShapeGroup">
                    <g id="Group" transform="translate(776.000000, 29.000000)">
                        <path d="M185.625,17.21875 L171.375,17.21875 C171.04725,17.21875 170.78125,16.95275 170.78125,16.625 L170.78125,7.71875 L173.15625,7.71875 C172.846906,8.1640625 172.742406,8.99471875 172.742406,9.52196875 C172.742406,12.7015 175.335312,15.2884688 178.521969,15.2884688 C181.709219,15.2884688 184.302125,12.7015 184.302125,9.52196875 C184.302125,8.99471875 184.227313,8.17653125 183.84375,7.71875 L186.21875,7.71875 L186.21875,16.625 C186.21875,16.95275 185.95275,17.21875 185.625,17.21875 M178.521969,5.8769375 C180.540125,5.8769375 182.175906,7.50915625 182.175906,9.52196875 C182.175906,11.535375 180.540125,13.1675938 178.521969,13.1675938 C176.504406,13.1675938 174.868625,11.535375 174.868625,9.52196875 C174.868625,7.50915625 176.504406,5.8769375 178.521969,5.8769375 M183.25,2.375 L185.03125,2.375 C185.359,2.375 185.625,2.641 185.625,2.96875 L185.625,4.75 C185.625,5.07775 185.359,5.34375 185.03125,5.34375 L183.25,5.34375 C182.92225,5.34375 182.65625,5.07775 182.65625,4.75 L182.65625,2.96875 C182.65625,2.641 182.92225,2.375 183.25,2.375 M185.741375,0 L171.258625,0 C170.011156,0 169,1.00878125 169,2.25328125 L169,16.7467188 C169,17.9912188 170.011156,19 171.258625,19 L185.741375,19 C186.988844,19 188,17.9912188 188,16.7467188 L188,2.25328125 C188,1.00878125 186.988844,0 185.741375,0" id="Instagram"></path>
                    </g>
                </g>
            </g>
        </g>
    </g>
</svg>