<svg id="SvgIcon" data-name="SvgIcon" xmlns="http://www.w3.org/2000/svg" viewBox="0 0 45.67 35.86"><defs><style>.cls-1{fill:#fff;}</style></defs><path class="cls-1" d="M24.58,3.9a1.22,1.22,0,0,1-.45-.76,1.27,1.27,0,0,0-.1,1A.91.91,0,0,0,24.58,3.9Z"/><path class="cls-1" d="M21.27,9.21a5,5,0,0,1,2.29,2.95,2.57,2.57,0,0,0,0-1.73,3.78,3.78,0,0,1,1.39,2,3.13,3.13,0,0,0,.14-2,2.12,2.12,0,0,1,1.36,1.25,2.14,2.14,0,0,0-.46-2,2,2,0,0,1,1.67.84,2.19,2.19,0,0,0-1.05-1.8c-1.12-.82-1.64-2.27-.63-3.07s1.32-.39,1.54-.88-.55-1-1.34-.6a.44.44,0,0,0-.56-.37c-.5.08-1.26.69-1.81.52a1.08,1.08,0,0,1,.15,1.14,1.58,1.58,0,0,0-.59-1.12A2.47,2.47,0,0,1,22.58,3a2.33,2.33,0,0,0-.11,2.62A4.09,4.09,0,0,0,21.27,9.21Z"/><path class="cls-1" d="M25.62,4.5a1,1,0,0,1-.95.54S24.48,4.64,25.62,4.5Z"/><path class="cls-1" d="M20.36,31.88a2,2,0,0,1,.4,1.73,2.31,2.31,0,0,0,.66-1.68A2.92,2.92,0,0,1,20.36,31.88Z"/><path class="cls-1" d="M25.56,6.67c0,.59.37.89,1.32.86A1.47,1.47,0,0,0,28.14,7a1.72,1.72,0,0,1-1.14.1c-.74-.13-.42-.77.57-1.2a2.69,2.69,0,0,1,1.88-.11,2.21,2.21,0,0,0-1.71-1.07c-.15.62-.24.35-1.23.79S25.56,6.67,25.56,6.67Z"/><path class="cls-1" d="M34.9,10a.72.72,0,0,1-.42.61.79.79,0,0,1,.88.49A1.39,1.39,0,0,0,34.9,10Z"/><path class="cls-1" d="M21.94,31.81a2,2,0,0,1,1.14,1.34,2.42,2.42,0,0,0-.21-1.83A3.23,3.23,0,0,1,21.94,31.81Z"/><path class="cls-1" d="M29.94,14.69a6.13,6.13,0,0,0,.68-.73c1.28-1.65,1.82-1.1,1.82-1.1a.38.38,0,0,0-.49-.41s.69-.74,1.34-.55c0,0-.07-.57-.59-.5a1.18,1.18,0,0,1,1.11-.56.59.59,0,0,0-.63-.32,1.14,1.14,0,0,0,.29-.29h0a.76.76,0,0,0,.45.37.72.72,0,0,0,.87-.5.78.78,0,0,0,0-.48l0,0v0a.79.79,0,0,0-.45-.36,1.75,1.75,0,0,0-1.1.13h0a1.05,1.05,0,0,1,.15-.3.79.79,0,0,0,.9-1.18.8.8,0,0,0-.43-.34l-.06,0h0a.87.87,0,0,0-.64.1,1.48,1.48,0,0,0-.56.61,1,1,0,0,1,0-.18,1.87,1.87,0,0,1,0-.25.79.79,0,0,0,.39-1.43.77.77,0,0,0-.52-.16h-.08a.87.87,0,0,0-.56.33,1.87,1.87,0,0,0-.32,1.2A1.55,1.55,0,0,0,31,7.48a2.85,2.85,0,0,1,.2,2.43,4.67,4.67,0,0,1-1.08,1.5,1.16,1.16,0,0,0,0-.38,7.15,7.15,0,0,1-.56.76A5,5,0,0,1,29.94,14.69Z"/><path class="cls-1" d="M34.43,8.52a.88.88,0,0,1,1.07-.36,1.56,1.56,0,0,0-1.25-.46A.85.85,0,0,1,34.43,8.52Z"/><path class="cls-1" d="M33.34,6.88a.89.89,0,0,1,.87-.73,1.56,1.56,0,0,0-1.34,0A.83.83,0,0,1,33.34,6.88Z"/><path class="cls-1" d="M33,26.55a3.62,3.62,0,0,1-.15,1,1.93,1.93,0,0,1,1.75-.14A2.34,2.34,0,0,0,33,26.55Z"/><path class="cls-1" d="M34.58,16.76a.78.78,0,0,0,.45.46.81.81,0,0,0,1-.45.77.77,0,0,0,0-.54s0,0,0-.06v0a.93.93,0,0,0-.46-.46,1.47,1.47,0,0,0-.82-.08.76.76,0,0,1,.11-.14,1,1,0,0,1,.22-.13.78.78,0,0,0,.59.27.8.8,0,0,0,.8-.8.78.78,0,0,0-.19-.51l0-.05,0,0a.89.89,0,0,0-.59-.25,1.88,1.88,0,0,0-1.16.47,1.44,1.44,0,0,0,0-.46,2.84,2.84,0,0,1-1.83,1.61,4.53,4.53,0,0,1-1.85,0,1.07,1.07,0,0,0,.29-.24c-2.17.16-3.15-.61-3.57-1.18a1.23,1.23,0,0,1-.22-.47A3.61,3.61,0,0,0,29.54,15c.74-2.65-1.72-5.14-1.72-5.14a3.06,3.06,0,0,1-.06,1.55,1.81,1.81,0,0,0-1.08-1.24,2.84,2.84,0,0,1-.27,2.36,1.81,1.81,0,0,0-.94-1.46,3.38,3.38,0,0,1-.64,2.14A3.73,3.73,0,0,0,24,11.39a1.69,1.69,0,0,1-.59,1.46l0,0a4.39,4.39,0,0,0-2.43-3.3C18.45,8.15,10.39,6.67,7.3,1.46c0,0,.51,4.27,7.63,7.19,2.72,1.12,4.49,1.81,5.68,2.31-.13.35-.12,1,1.3,1.59,0,0-.77.64.88,1.31,0,0-.51.61,1,1.18,0,0,.84,1.21.07,2.11,0,0,.74-.1.87-.57,0,0,.54.84-.06,1.38a1.57,1.57,0,0,0,1.7-1.28,4.06,4.06,0,0,0,2.65.86c2.08.05,2,.81,2,.81a.38.38,0,0,0,0-.64s1,.11,1.25.75c0,0,.42-.4.05-.77a1.16,1.16,0,0,1,1.11.55.57.57,0,0,0-.12-.69,1.18,1.18,0,0,0,.4.06h0a.67.67,0,0,0,0,.57.71.71,0,0,0,.92.41.75.75,0,0,0,.36-.32.14.14,0,0,0,0-.06h0a.75.75,0,0,0,0-.57,1.62,1.62,0,0,0-.76-.81h0A1.39,1.39,0,0,1,34.58,16.76Z"/><path class="cls-1" d="M34,18.67a.8.8,0,0,1,.13,1,1.42,1.42,0,0,0,.61-1A.73.73,0,0,1,34,18.67Z"/><path class="cls-1" d="M36.59,14.71a.83.83,0,0,1-.27.79.89.89,0,0,1,1.1.27A1.57,1.57,0,0,0,36.59,14.71Z"/><path class="cls-1" d="M35.65,17.35a.89.89,0,0,1,.93.66,1.58,1.58,0,0,0-.38-1.29C36,17.28,35.65,17.35,35.65,17.35Z"/><path class="cls-1" d="M32.64,28.09a2.83,2.83,0,0,1-.66.83,1.94,1.94,0,0,1,1.64.68C33.62,28.88,32.86,28.26,32.64,28.09Z"/><path class="cls-1" d="M24.39,20.19a2.65,2.65,0,0,1,1.46,1.49A3.81,3.81,0,0,1,27,19.36a7.9,7.9,0,0,0,1.41-1.54,3.46,3.46,0,0,1-1.81-.42,2.43,2.43,0,0,1-2.82.93,1.54,1.54,0,0,0,.88-1.11,1.46,1.46,0,0,1-1.51.2,1.49,1.49,0,0,0,.45-2.06s-.45-.08-.5-.26c0,0,0,4.09-2.52,5.34s-2.69-1.78-2.69-1.78A2,2,0,0,0,17.56,20a8.55,8.55,0,0,1-2.42-2.58,4.36,4.36,0,0,0-3.44-2.18,2.1,2.1,0,0,0-1.48.56,2.15,2.15,0,0,0-.62,1.59v.05a2.75,2.75,0,0,0,.82,1.82c.69.75,1.64,1.38,2.51,2.17a6.4,6.4,0,0,1,2,3.07,3.83,3.83,0,0,1,.13.94,1.72,1.72,0,0,1-.5,1.33,1.65,1.65,0,0,1-1.05.44,2.12,2.12,0,0,1-2.24-2.12,7,7,0,0,0-1.08-3.83,3.35,3.35,0,0,1-.07,2.12S9.49,20,7,18.6a9.19,9.19,0,0,1,1.34,4.6s-.5-.17-.5-1a3.17,3.17,0,0,0,1,3.6,1.49,1.49,0,0,1-1.21-.57s.57,2.41,3.86,3c2.05.38,3.33-.16,3.94-1.1A2.85,2.85,0,0,0,16,25.43a4.66,4.66,0,0,0-.17-1.17A8.27,8.27,0,0,0,12.62,20a15,15,0,0,1-1.53-1.33,1.85,1.85,0,0,1-.58-1.23v0a1.22,1.22,0,0,1,.34-.94,1.17,1.17,0,0,1,.85-.3,3.48,3.48,0,0,1,2.68,1.76,10,10,0,0,0,2.32,2.59,2.13,2.13,0,0,0-1.17.9s.75-.58,2.56.21a1.67,1.67,0,0,0-.9.43,4.81,4.81,0,0,1,3.62.93c1.47,1.2,1,2.43.28,2.49-.08-.15-.35-.51-1-.14s-1.53,1.79-1.33,4c0,0,.18-.46.39-.88,0,0,0,.05,0,.07.26,1.77.39,3,1.51,3.11a3,3,0,0,0,2-.46c.63-.46,1-1.29.13-1.56s-1.16.25-1.46.25a.14.14,0,0,1-.11-.06.76.76,0,0,1,0-.32c0-.91-.26-2.77,1.51-2.67s3.85-1.71,3.25-3.7A7.54,7.54,0,0,0,24.39,20.19Z"/><path class="cls-1" d="M23.69,30.19a1.7,1.7,0,0,1-.49.86l-.08.1a2,2,0,0,1,1.81.33C24.79,30.79,24,30.32,23.69,30.19Z"/><path class="cls-1" d="M33,26.24A1.93,1.93,0,0,1,34.33,25a2.35,2.35,0,0,0-1.78.25,1.71,1.71,0,0,1,.42.91Z"/><path class="cls-1" d="M31.56,25.63c-.74.55-.48,1.09-.65,1.33a.2.2,0,0,1-.11.06,1,1,0,0,1-.29-.16c-.72-.55-2.39-1.41-1.28-2.78s.86-4.13-1.11-4.8l-.42-.14a4.1,4.1,0,0,0-1.57,3.07,5,5,0,0,0,.09,1c.91.16,1.23.89,1,1.32-.17,0-.62,0-.7.73-.11.92.55,2.29,2.49,3.44,0,0-.27-.42-.49-.84l.07,0c1.58.82,2.63,1.41,3.4.59a2.93,2.93,0,0,0,.79-1.89C32.75,25.87,32.3,25.07,31.56,25.63Z"/><path class="cls-1" d="M18.19,10.3c-.69-.27-1.51-.6-2.45-1A24.75,24.75,0,0,1,10.69,7s1,2.65,6,4.07c0,0-3.86-.64-5.14-1.68,0,0,1.38,2.62,5.51,3.29a6.64,6.64,0,0,1-3.06-.51s.37,1.45,2.93,1.89c2.18.37,4.91,1.56,5.41,3.42a9.4,9.4,0,0,0,.39-2.41v-.29a1,1,0,0,1-.35-.52.68.68,0,0,1,0-.28c-.6-.28-.92-.6-1-1a.84.84,0,0,1,0-.36c-1.07-.53-1.26-1.12-1.21-1.54Z"/></svg>