<svg xmlns="http://www.w3.org/2000/svg" xmlns:xlink="http://www.w3.org/1999/xlink" x="0px" y="0px" viewBox="0 0 47.7 47.9">
<symbol id="main-logo-exdesign">
    <g id="#main-logo-exdesign-back">
<path d="M27.9,3.9c-0.5-0.3-0.6-1.1-0.6-1.1c-0.4,0.6-0.1,1.4-0.1,1.4C27.5,4.2,27.9,3.9,27.9,3.9z M23.2,11.4
		c0,0,2.8,1.6,3.2,4.2c0,0,0.5-1.2-0.1-2.5c0,0,1.4,0.9,2,2.9c0,0,0.7-1.8,0.2-2.9c0,0,1.6,0.5,1.9,1.8c0,0,0.5-1.9-0.6-2.8
		c0,0,1.6,0,2.4,1.2c0,0,0.1-1.4-1.5-2.5c-1.6-1.2-2.3-3.2-0.9-4.4c1.4-1.1,1.9-0.5,2.2-1.2c0.3-0.7-0.8-1.4-1.9-0.9
		c0,0-0.1-0.6-0.8-0.5c-0.7,0.1-1.8,1-2.6,0.7c0,0,0.6,0.7,0.2,1.6c0,0,0-1-0.8-1.6c-0.8-0.6-1-1.9-1-1.9s-1.3,1.5-0.2,3.7
		C24.9,6.4,22.9,7.9,23.2,11.4z M29.4,4.8c0,0-0.4,0.9-1.4,0.8C28,5.5,27.8,5,29.4,4.8z M21.9,43.6c1,1.2,0.6,2.4,0.6,2.4
		c0.8-0.6,0.9-2,0.9-2.4C22.8,43.7,22.3,43.6,21.9,43.6z M29.3,7.8c0,0.8,0.5,1.3,1.9,1.2c1.4,0,1.8-0.8,1.8-0.8s-0.6,0.3-1.6,0.1
		c-1-0.2-0.6-1.1,0.8-1.7c1.4-0.6,2.7-0.1,2.7-0.1C33.9,5.1,32.4,5,32.4,5c-0.2,0.9-0.3,0.5-1.7,1.1C29.2,6.8,29.3,7.8,29.3,7.8z
		 M42.5,12.6c-0.1,0.7-0.6,0.9-0.6,0.9c1-0.1,1.2,0.7,1.2,0.7C43.3,13.3,42.5,12.6,42.5,12.6z M24.2,43.4c1.4,0.6,1.6,1.9,1.6,1.9
		c0.5-1-0.2-2.3-0.3-2.6C25,43.1,24.6,43.3,24.2,43.4z M35.5,19.2c0.3-0.3,0.6-0.6,1-1c1.8-2.3,2.6-1.6,2.6-1.6s0-0.7-0.7-0.6
		c0,0,1-1,1.9-0.8c0,0-0.1-0.8-0.8-0.7c0,0,0.4-0.8,1.6-0.8c0,0-0.2-0.5-0.9-0.5c0.2-0.1,0.3-0.3,0.4-0.4c0,0,0,0,0,0
		c0.1,0.2,0.3,0.4,0.6,0.5c0.5,0.1,1.1-0.2,1.2-0.7c0.1-0.2,0-0.5-0.1-0.7c0,0,0-0.1,0-0.1c0,0,0,0,0,0c-0.1-0.2-0.3-0.4-0.6-0.5
		c-0.6-0.2-1.4,0.1-1.6,0.2c0,0,0,0,0,0c0.1-0.2,0.1-0.3,0.2-0.4c0.3,0.1,0.6,0.1,0.9-0.1c0.5-0.3,0.7-1,0.4-1.6
		c-0.1-0.2-0.4-0.4-0.6-0.5c0,0-0.1,0-0.1,0c0,0,0,0,0,0c-0.3-0.1-0.6,0-0.9,0.1c-0.4,0.2-0.6,0.6-0.8,0.9c0-0.1,0-0.2-0.1-0.2
		c0-0.1,0-0.2,0-0.4c0.3,0,0.6-0.2,0.8-0.4c0.4-0.5,0.3-1.2-0.2-1.6c-0.2-0.2-0.5-0.2-0.7-0.2c0,0-0.1,0-0.1,0c0,0,0,0,0,0
		c-0.3,0-0.6,0.2-0.8,0.5c-0.5,0.6-0.5,1.4-0.4,1.7C37.3,9.1,37,9,37,9c0.8,1.2,0.5,2.7,0.3,3.4c-0.3,0.7-0.8,1.4-1.5,2.1
		c0-0.3,0-0.5,0-0.5c-0.3,0.4-0.5,0.8-0.8,1.1C35.2,15.7,35.8,17.3,35.5,19.2z M41.8,10.5c0.7-0.9,1.5-0.5,1.5-0.5
		c-0.6-0.8-1.8-0.7-1.8-0.7C42.1,10,41.8,10.5,41.8,10.5z M40.3,8.1c0.3-1.1,1.2-1,1.2-1c-0.8-0.5-1.9,0-1.9,0
		C40.3,7.6,40.3,8.1,40.3,8.1z M39.8,36c0,0.6-0.1,1-0.2,1.5c1.3-0.8,2.5-0.2,2.5-0.2C41.6,36.3,40.1,36,39.8,36z M42.1,22.1
		c0.1,0.3,0.3,0.5,0.6,0.7c0.6,0.2,1.2-0.1,1.5-0.6c0.1-0.3,0.1-0.5,0-0.8c0,0,0-0.1,0-0.1c0,0,0,0,0,0c-0.1-0.3-0.3-0.5-0.7-0.6
		c-0.4-0.2-0.8-0.2-1.2-0.1c0-0.1,0.1-0.1,0.2-0.2c0.1-0.1,0.2-0.1,0.3-0.2c0.2,0.2,0.5,0.4,0.8,0.4c0.6,0,1.1-0.5,1.1-1.1
		c0-0.3-0.1-0.5-0.3-0.7c0,0,0,0-0.1-0.1c0,0,0,0,0,0c-0.2-0.2-0.5-0.3-0.8-0.4c-0.7,0-1.4,0.5-1.6,0.7c0-0.3-0.1-0.6-0.1-0.6
		c-0.5,1.4-1.9,2-2.6,2.3c-0.7,0.2-1.6,0.2-2.6,0c0.3-0.2,0.4-0.3,0.4-0.3c-3.1,0.2-4.5-0.9-5.1-1.7c-0.3-0.4-0.3-0.7-0.3-0.7
		c1.3,1.6,3.2,1.8,3.2,1.8c1-3.8-2.4-7.3-2.4-7.3c0.3,1.1-0.1,2.2-0.1,2.2c-0.4-1.4-1.5-1.8-1.5-1.8c0.6,1.9-0.4,3.4-0.4,3.4
		c-0.1-1.5-1.3-2.1-1.3-2.1c0.1,1.7-0.9,3-0.9,3c-0.1-1.3-1.2-2.6-1.2-2.6c0.1,1.1-0.6,1.9-0.8,2.1c0,0,0,0,0,0
		c-0.1-0.9-0.6-3.1-3.4-4.7c-3.5-2-14.9-4-19.3-11.4c0,0,0.7,6,10.8,10.2c3.9,1.6,6.4,2.6,8.1,3.3c-0.2,0.5-0.2,1.4,1.8,2.3
		c0,0-1.1,0.9,1.2,1.9c0,0-0.7,0.9,1.4,1.7c0,0,1.2,1.7,0.1,3c0,0,1-0.1,1.2-0.8c0,0,0.8,1.2-0.1,2c0,0,2,0.2,2.4-1.8
		c0.5,0.4,1.6,1.2,3.7,1.2c2.9,0.1,2.8,1.1,2.8,1.1s0.6-0.4,0-0.9c0,0,1.4,0.2,1.8,1.1c0,0,0.6-0.6,0.1-1.1c0,0,0.9-0.2,1.6,0.8
		c0,0,0.3-0.5-0.2-1c0.2,0.1,0.4,0.1,0.6,0.1c0,0,0,0,0,0c-0.1,0.2-0.1,0.5,0,0.8c0.2,0.5,0.8,0.8,1.3,0.6c0.2-0.1,0.4-0.3,0.5-0.4
		c0,0,0-0.1,0-0.1c0,0,0,0,0,0c0.1-0.2,0.1-0.5,0-0.8c-0.2-0.6-0.9-1-1.1-1.1c0,0,0,0,0,0C41.8,22.2,41.9,22.1,42.1,22.1z
		 M41.2,24.8c0.7,0.7,0.2,1.4,0.2,1.4c0.8-0.4,0.9-1.4,0.9-1.4C41.6,25.1,41.2,24.8,41.2,24.8z M44.9,19.2c0.1,0.8-0.4,1.1-0.4,1.1
		c1.1-0.4,1.6,0.4,1.6,0.4C46,19.8,44.9,19.2,44.9,19.2z M43.6,23c1.1,0,1.3,0.9,1.3,0.9c0.3-0.9-0.5-1.8-0.5-1.8
		C44.1,22.9,43.6,23,43.6,23z M39.3,38.2c-0.3,0.5-0.6,0.9-0.9,1.2c1.5-0.1,2.3,1,2.3,1C40.7,39.3,39.6,38.4,39.3,38.2z M27.6,27
		c0,0,1.6,0.6,2.1,2.1c0,0,0.1-2,1.6-3.3c1.5-1.3,2-2.2,2-2.2s-1.5,0.1-2.6-0.6c0,0-1,2-4,1.3c0,0,1.2-0.5,1.2-1.6
		c0,0-1.1,0.9-2.1,0.3c0,0,1.7-1.2,0.6-2.9c0,0-0.6-0.1-0.7-0.4c0,0,0,5.8-3.6,7.6c-3.6,1.8-3.8-2.5-3.8-2.5s-0.6,0.8-0.4,1.9
		c-0.8-0.5-2.1-1.6-3.4-3.7c-1.3-2-3.2-3.1-4.9-3.1c-0.8,0-1.5,0.3-2.1,0.8C7,21.3,6.7,22.1,6.7,23c0,0,0,0,0,0.1
		c0,1,0.5,1.9,1.2,2.6c1,1.1,2.3,2,3.6,3.1c1.2,1.1,2.3,2.5,2.8,4.3c0.1,0.5,0.2,0.9,0.2,1.3c0,0.9-0.3,1.5-0.7,1.9
		c-0.4,0.4-0.9,0.6-1.5,0.6c-1.2-0.1-3.2-0.6-3.2-3c0-3.4-1.5-5.4-1.5-5.4s0.5,1.7-0.1,3c0,0-0.9-4.8-4.4-6.8c0,0,2.1,3.5,1.9,6.5
		c0,0-0.7-0.2-0.7-1.4c0,0-1.2,2.7,1.4,5.1c0,0-1,0.1-1.7-0.8c0,0,0.8,3.4,5.5,4.3c2.9,0.5,4.7-0.2,5.6-1.6c0.5-0.6,0.8-1.5,0.7-2.4
		c0-0.5-0.1-1.1-0.2-1.7c-0.8-2.9-2.8-4.7-4.5-6.1c-0.9-0.7-1.6-1.3-2.2-1.9C8.3,24.2,8,23.7,8,23.1c0,0,0,0,0,0
		c0-0.7,0.2-1.1,0.5-1.3c0.3-0.3,0.7-0.4,1.2-0.4c1.1,0,2.7,0.8,3.8,2.5c1.2,1.8,2.4,3,3.3,3.7c-0.5,0.1-1.1,0.5-1.7,1.3
		c0,0,1.1-0.8,3.6,0.3c-0.4,0.1-0.9,0.2-1.3,0.6c0,0,2.9-0.5,5.1,1.3c2.1,1.7,1.3,3.4,0.4,3.5c-0.1-0.2-0.5-0.7-1.4-0.2
		c-1.1,0.6-2.2,2.5-1.9,5.7c0,0,0.3-0.7,0.6-1.3c0,0,0,0.1,0,0.1c0.4,2.5,0.6,4.2,2.1,4.4c1.1,0.2,2.4-0.3,2.8-0.7
		c0.9-0.6,1.4-1.8,0.2-2.2c-1.2-0.4-1.6,0.4-2.1,0.4c-0.1,0-0.1,0-0.1-0.1c0-0.1-0.1-0.3-0.1-0.5c0-1.3-0.4-3.9,2.1-3.8
		c2.5,0.1,5.5-2.4,4.6-5.2C29,28.3,27.6,27,27.6,27z M26.6,41.2c-0.1,0.5-0.3,0.9-0.7,1.2c-0.1,0.1-0.1,0.1-0.1,0.1
		c1.5-0.5,2.6,0.5,2.6,0.5C28.2,42,27,41.3,26.6,41.2z M39.8,35.6c0.5-1.5,1.9-1.8,1.9-1.8c-0.9-0.4-2.1,0.2-2.5,0.4
		c0.3,0.4,0.5,0.8,0.6,1.3C39.8,35.5,39.8,35.6,39.8,35.6z M37.8,34.7c-1,0.8-0.7,1.5-0.9,1.9c0,0-0.1,0.1-0.1,0.1
		c-0.1,0-0.3-0.1-0.4-0.2c-1-0.8-3.4-2-1.8-3.9c1.6-1.9,1.2-5.8-1.6-6.8c-0.2-0.1-0.4-0.1-0.6-0.2c-0.5,0.4-2.2,1.9-2.2,4.3
		c0,0.7,0.1,1.1,0.1,1.5c1.3,0.2,1.7,1.3,1.4,1.9c-0.2,0-0.9,0-1,1c-0.1,1.3,0.8,3.2,3.5,4.9c0,0-0.4-0.6-0.7-1.2c0,0,0.1,0,0.1,0.1
		c2.2,1.2,3.7,2,4.8,0.8c0.8-0.8,1.1-2.1,1.1-2.7C39.5,35,38.8,33.9,37.8,34.7z M18.9,13c-1-0.4-2.1-0.9-3.5-1.4
		c-2.6-0.9-5.3-2-7.1-3.2c0,0,1.4,3.8,8.6,5.8c0,0-5.5-0.9-7.3-2.4c0,0,2,3.7,7.8,4.7c0,0-2.1,0.2-4.3-0.7c0,0,0.5,2,4.1,2.7
		c3.1,0.5,7,2.2,7.7,4.8c0.5-1.7,0.5-3.4,0.5-3.4l0-0.4c-0.3-0.2-0.4-0.5-0.5-0.7c0-0.1,0-0.3,0-0.4c-0.8-0.4-1.3-0.9-1.4-1.4
		c0-0.2,0-0.4,0-0.5c-1.5-0.8-1.8-1.6-1.7-2.2C21,13.8,20,13.5,18.9,13z"/> </g>
  </symbol>
</svg>
