<?xml version="1.0" encoding="UTF-8" standalone="no"?>
<svg width="19px" height="16px" viewBox="0 0 19 16" version="1.1" xmlns="http://www.w3.org/2000/svg" xmlns:xlink="http://www.w3.org/1999/xlink" xmlns:sketch="http://www.bohemiancoding.com/sketch/ns">
    <!-- Generator: Sketch 3.5.1 (25234) - http://www.bohemiancoding.com/sketch -->
    <title>Twitter</title>
    <desc>Created with Sketch.</desc>
    <defs></defs>
    <g id="Page-1" stroke="none" stroke-width="1" fill="none" fill-rule="evenodd" sketch:type="MSPage">
        <g id="Landing-Desktop" sketch:type="MSArtboardGroup" transform="translate(-831.000000, -5427.000000)" fill="#FFFFFF">
            <g id="Footer" sketch:type="MSLayerGroup" transform="translate(0.000000, 5094.000000)">
                <g id="Social-Media" transform="translate(0.000000, 302.000000)" sketch:type="MSShapeGroup">
                    <g id="Group" transform="translate(776.000000, 29.000000)">
                        <path d="M74,3.8941134 C73.3018724,4.21538462 72.5502142,4.43264717 71.7617538,4.52972192 C72.5669425,4.03048032 73.1847743,3.23885879 73.4758467,2.29584688 C72.7219581,2.75810762 71.8888889,3.09440231 70.9989435,3.274684 C70.2896637,2.48999639 69.2759289,2 68.1540177,2 C66.0027587,2 64.2574397,3.80859516 64.2574397,6.03900325 C64.2574397,6.35565186 64.2908963,6.66305525 64.3578095,6.95890213 C61.1180959,6.79017696 58.2464049,5.18382087 56.3226507,2.73730589 C55.9869695,3.33593355 55.7951517,4.03048032 55.7951517,4.77009751 C55.7951517,6.17074756 56.4832424,7.40729505 57.5293185,8.13188877 C56.8914128,8.11224269 56.2891941,7.92849404 55.7628104,7.62802456 L55.7628104,7.67771759 C55.7628104,9.63539184 57.1066502,11.2683279 58.8910019,11.6381365 C58.5642425,11.7329 58.2196396,11.7802817 57.8638845,11.7802817 C57.61296,11.7802817 57.3676117,11.756013 57.1300698,11.7086313 C57.6263427,13.3126761 59.0649762,14.4810401 60.7712625,14.5122427 C59.4374596,15.5962441 57.7557082,16.2422535 55.9300933,16.2422535 C55.6156013,16.2422535 55.304455,16.2237631 55,16.1867822 C56.7252451,17.3308776 58.7750191,18 60.9753478,18 C68.1462112,18 72.0662088,11.8461538 72.0662088,6.50819791 C72.0662088,6.33253882 72.0628632,6.15687974 72.0561719,5.98468761 C72.817867,5.41495125 73.4791923,4.70422535 74,3.8941134" id="Twitter"></path>
                    </g>
                </g>
            </g>
        </g>
    </g>
</svg>