<svg id="レイヤー_1" data-name="レイヤー 1" xmlns="http://www.w3.org/2000/svg" viewBox="0 0 76 74"><title>アートボード 4</title><g id="検索_2" data-name="検索 2"><rect x="7.06" y="50.26" width="27.17" height="13.16" rx="2.02" ry="2.02" transform="translate(-32.83 28.61) rotate(-42.21)"/><path d="M48.57,8A22.39,22.39,0,1,1,27.39,23.07,22.41,22.41,0,0,1,48.57,8m0,6.07a16.36,16.36,0,0,0-15.44,11,16.33,16.33,0,0,0,10.1,20.76A16.34,16.34,0,0,0,64,35.73,16.33,16.33,0,0,0,53.92,15h0a16.33,16.33,0,0,0-5.35-.9Z"/></g></svg>