<svg id="レイヤー_1" data-name="レイヤー 1" xmlns="http://www.w3.org/2000/svg" viewBox="0 0 76 68"><title>アートボード 3</title><path d="M53.7,8c.9,0,1.87.05,2.9.15,6.27.6,13.52,6.25,14.4,17.07v3.61C70.18,39.19,62.23,52,39,68,15.77,52,7.82,39.19,7,28.83V25.22C7.88,14.4,15.13,8.75,21.4,8.15c1-.1,2-.15,2.9-.15C31.55,8,35,11.08,39,15.75,43,11.08,46.45,8,53.7,8m0,6.89c-4.17,0-5.9,1.25-9.34,5.28L39,26.46l-5.36-6.28c-3.44-4-5.18-5.29-9.34-5.29-.68,0-1.43,0-2.22.11-2.89.28-7.39,3.31-8.08,10.52v3c.85,9,9.26,19.46,25,31C54.74,48,63.15,37.58,64,28.53v-3c-.69-7.21-5.19-10.24-8.09-10.52-.79-.07-1.53-.11-2.21-.11Z"/></svg>